<svg width="40" height="38" viewBox="0 0 40 38" fill="none" xmlns="http://www.w3.org/2000/svg">
<path d="M27.3332 12.6667C30.2506 12.6667 33.0484 13.8256 35.1113 15.8885C37.1742 17.9514 38.3332 20.7493 38.3332 23.6667V36.5H30.9998V23.6667C30.9998 22.6942 30.6135 21.7616 29.9259 21.0739C29.2383 20.3863 28.3056 20 27.3332 20C26.3607 20 25.4281 20.3863 24.7404 21.0739C24.0528 21.7616 23.6665 22.6942 23.6665 23.6667V36.5H16.3332V23.6667C16.3332 20.7493 17.4921 17.9514 19.555 15.8885C21.6179 13.8256 24.4158 12.6667 27.3332 12.6667Z" stroke="#4F4F4F" stroke-width="2" stroke-linecap="round" stroke-linejoin="round"/>
<path d="M8.99984 14.5H1.6665V36.5H8.99984V14.5Z" stroke="#4F4F4F" stroke-width="2" stroke-linecap="round" stroke-linejoin="round"/>
<path d="M5.33317 9C7.35821 9 8.99984 7.35837 8.99984 5.33333C8.99984 3.30829 7.35821 1.66666 5.33317 1.66666C3.30813 1.66666 1.6665 3.30829 1.6665 5.33333C1.6665 7.35837 3.30813 9 5.33317 9Z" stroke="#4F4F4F" stroke-width="2" stroke-linecap="round" stroke-linejoin="round"/>
</svg>
