<svg width="36" height="44" viewBox="0 0 36 44" fill="none" xmlns="http://www.w3.org/2000/svg">
<path d="M34.5 18.3333C34.5 31.1667 18 42.1667 18 42.1667C18 42.1667 1.5 31.1667 1.5 18.3333C1.5 13.9573 3.23839 9.76042 6.33274 6.66607C9.42709 3.57172 13.6239 1.83334 18 1.83334C22.3761 1.83334 26.5729 3.57172 29.6673 6.66607C32.7616 9.76042 34.5 13.9573 34.5 18.3333Z" stroke="#4F4F4F" stroke-width="2" stroke-linecap="round" stroke-linejoin="round"/>
<path d="M18 23.8333C21.0376 23.8333 23.5 21.3709 23.5 18.3333C23.5 15.2958 21.0376 12.8333 18 12.8333C14.9624 12.8333 12.5 15.2958 12.5 18.3333C12.5 21.3709 14.9624 23.8333 18 23.8333Z" stroke="#4F4F4F" stroke-width="2" stroke-linecap="round" stroke-linejoin="round"/>
</svg>
