<svg width="39" height="42" viewBox="0 0 39 42" fill="none" xmlns="http://www.w3.org/2000/svg">
<path d="M27.3332 40.3334V33.2384C27.4019 32.3642 27.2838 31.4854 26.9867 30.6603C26.6896 29.8353 26.2202 29.083 25.6098 28.4534C31.3665 27.8117 37.4165 25.6301 37.4165 15.6201C37.416 13.0604 36.4314 10.5989 34.6665 8.74505C35.5022 6.50565 35.4431 4.03036 34.5015 1.83338C34.5015 1.83338 32.3382 1.19172 27.3332 4.54672C23.1312 3.40789 18.7018 3.40789 14.4998 4.54672C9.49484 1.19172 7.3315 1.83338 7.3315 1.83338C6.38986 4.03036 6.33077 6.50565 7.1665 8.74505C5.3884 10.6127 4.4028 13.0964 4.4165 15.6751C4.4165 25.6117 10.4665 27.7934 16.2232 28.5084C15.62 29.1317 15.1548 29.875 14.8579 30.6899C14.561 31.5048 14.5 32 14.4998 32.7203C14.4998 32.7203 11.6663 33.5537 10.0832 33.0268C8.5 32.5 6 30 4.87484 29.1801C3.74967 28.3602 1.6665 29.3334 1.6665 29.3334C5.33317 30.2501 5.33317 38.5834 14.4998 35.8334V36.5268V40.3334" stroke="#4F4F4F" stroke-width="2" stroke-linecap="round" stroke-linejoin="round"/>
</svg>
