<svg width="44" height="36" viewBox="0 0 44 36" fill="none" xmlns="http://www.w3.org/2000/svg">
<path d="M42.1668 1.50004C40.4112 2.73842 38.4674 3.68557 36.4102 4.30504C35.306 3.03548 33.8386 2.13564 32.2064 1.72724C30.5742 1.31883 28.8559 1.42157 27.284 2.02154C25.712 2.62151 24.3623 3.68978 23.4173 5.08186C22.4723 6.47393 21.9776 8.12266 22.0002 9.80504V11.6384C18.7783 11.7219 15.5858 11.0074 12.707 9.55836C9.82819 8.10935 7.35241 5.97087 5.50016 3.33337C5.50016 3.33337 -1.83317 19.8334 14.6668 27.1667C10.8911 29.7296 6.39328 31.0147 1.8335 30.8334C18.3335 40 38.5002 30.8334 38.5002 9.75004C38.4985 9.23937 38.4494 8.72996 38.3535 8.22837C40.2246 6.38311 41.545 4.05335 42.1668 1.50004Z" stroke="#4F4F4F" stroke-width="2" stroke-linecap="round" stroke-linejoin="round"/>
</svg>
